<svg xmlns="http://www.w3.org/2000/svg" xmlns:xlink="http://www.w3.org/1999/xlink" viewBox="0 0 289.51 144"><defs><style>.a{fill:url(#a);}.b{fill:#555;}.c{fill:#acacac;}</style><linearGradient id="a" x1="144.75" y1="6.6" x2="144.75" y2="88.77" gradientUnits="userSpaceOnUse"><stop offset="0" stop-color="#111d2e"/><stop offset="0.21" stop-color="#051839"/><stop offset="0.41" stop-color="#0a1b48"/><stop offset="0.58" stop-color="#132e62"/><stop offset="0.74" stop-color="#144b7e"/><stop offset="0.87" stop-color="#136497"/><stop offset="1" stop-color="#1387b8"/></linearGradient></defs><title>Banner</title><path class="a" d="M188,79.41,154.08,6.7a68.52,68.52,0,0,0-18.46-.07,2.39,2.39,0,0,0-.13.21L101.56,79.7a53.18,53.18,0,0,0,11.08,8.43l3.14-7c4-9,14.51-15,26.27-15h0c14.67,0,27.77,7.45,32.82,18.66l1.56,3.46A52.57,52.57,0,0,0,188,79.41Zm-29.36-23.3H130.36c-1.66,0-2.82-1.35-2.25-2.62l14.14-31.35a2.46,2.46,0,0,1,4.49,0l14.09,31.34C161.4,54.76,160.25,56.11,158.59,56.11Z"/><path class="b" d="M29.53,125.25a6.44,6.44,0,0,1-2.67,5.53q-2.67,1.93-7.5,1.94a16.44,16.44,0,0,1-8-1.61V127.5a19.65,19.65,0,0,0,4,1.47,16.49,16.49,0,0,0,4.09.54,9.22,9.22,0,0,0,4.68-1,3.35,3.35,0,0,0,.34-5.53,20.46,20.46,0,0,0-5.07-2.52,27.9,27.9,0,0,1-5.1-2.33,6.94,6.94,0,0,1-2.25-2.27,5.9,5.9,0,0,1-.74-3,5.76,5.76,0,0,1,2.56-5,11.91,11.91,0,0,1,7-1.81,20.56,20.56,0,0,1,8.1,1.68L27.61,111a18.64,18.64,0,0,0-7-1.59,8.06,8.06,0,0,0-4.17.86,2.68,2.68,0,0,0-1.4,2.39,2.91,2.91,0,0,0,.52,1.76,5,5,0,0,0,1.7,1.38,37.6,37.6,0,0,0,4.5,1.9q4.58,1.66,6.18,3.35A5.92,5.92,0,0,1,29.53,125.25Z"/><path class="b" d="M44.16,129.51a12.85,12.85,0,0,0,2-.15,12.11,12.11,0,0,0,1.52-.32v3a7.1,7.1,0,0,1-1.86.5,13.2,13.2,0,0,1-2.21.2q-7.45,0-7.46-7.85V109.59H32.46v-1.88l3.68-1.61,1.64-5.49H40v6h7.46v3H40v15.12a5.18,5.18,0,0,0,1.11,3.56A3.81,3.81,0,0,0,44.16,129.51Z"/><path class="b" d="M63.66,132.72q-5.7,0-9-3.47t-3.29-9.63q0-6.21,3.06-9.87a10.17,10.17,0,0,1,8.21-3.65,9.7,9.7,0,0,1,7.64,3.17,12.15,12.15,0,0,1,2.81,8.38v2.46H55.41q.12,4.53,2.28,6.87a7.92,7.92,0,0,0,6.11,2.34,20.58,20.58,0,0,0,8.2-1.73v3.47a20.82,20.82,0,0,1-3.9,1.28A22.6,22.6,0,0,1,63.66,132.72ZM62.6,109.36a6.36,6.36,0,0,0-4.93,2A9.26,9.26,0,0,0,55.5,117H68.93a8.54,8.54,0,0,0-1.64-5.64A5.77,5.77,0,0,0,62.6,109.36Z"/><path class="b" d="M95.53,132.25l-.77-3.65h-.19a10.82,10.82,0,0,1-3.83,3.27,11.67,11.67,0,0,1-4.77.85,8.55,8.55,0,0,1-6-2,7.19,7.19,0,0,1-2.16-5.6q0-7.79,12.44-8.15l4.36-.14v-1.6a6.49,6.49,0,0,0-1.3-4.46,5.35,5.35,0,0,0-4.16-1.44,17,17,0,0,0-7.27,2l-1.19-3a18.72,18.72,0,0,1,8.69-2.21q4.6,0,6.81,2t2.22,6.54v17.53Zm-8.78-2.74a7.87,7.87,0,0,0,5.7-2,7.35,7.35,0,0,0,2.08-5.58v-2.32l-3.89.16q-4.65.16-6.7,1.45a4.35,4.35,0,0,0-2,4,4,4,0,0,0,1.28,3.21A5.32,5.32,0,0,0,86.75,129.51Z"/><path class="b" d="M139.17,132.25V115.54a6.9,6.9,0,0,0-1.31-4.6,5,5,0,0,0-4.08-1.54q-3.63,0-5.36,2.09t-1.74,6.42v14.34h-3.89V115.54a7,7,0,0,0-1.31-4.6,5.09,5.09,0,0,0-4.1-1.54c-2.44,0-4.22.73-5.36,2.19s-1.7,3.86-1.7,7.19v13.47h-3.89V106.57h3.17l.63,3.51h.19a7.69,7.69,0,0,1,3.1-2.93A9.53,9.53,0,0,1,118,106.1q6,0,7.88,4.36h.18a8.2,8.2,0,0,1,3.33-3.19,10.33,10.33,0,0,1,5-1.17c2.91,0,5.08.74,6.53,2.24s2.17,3.87,2.17,7.16v16.75Z"/><path class="c" d="M172.74,132.25l-3.42-9.51H156.21l-3.35,9.51H147l12.82-34.4h6.09l12.82,34.4Zm-4.9-14.34-3.21-9.33c-.24-.62-.56-1.61-1-3s-.7-2.33-.86-2.95A52.59,52.59,0,0,1,161,109l-3.1,8.93Z"/><path class="c" d="M205.9,108.35q0,5.37-3.51,8.22t-10,2.86h-3.56v12.82h-5.61V98h9.87q6.42,0,9.62,2.62C204.84,102.36,205.9,104.94,205.9,108.35Zm-17.08,6.37h3q4.32,0,6.33-1.5a5.47,5.47,0,0,0,2-4.69,5.33,5.33,0,0,0-1.81-4.4c-1.2-1-3.08-1.45-5.62-1.45h-3.89Z"/><path class="c" d="M241.29,132.25h-6.87L217.57,105h-.18l.11,1.52c.22,2.91.33,5.56.33,8v17.81h-5.08V98h6.79l16.81,27.16h.14c0-.36-.1-1.67-.19-3.92s-.14-4-.14-5.29V98h5.13Z"/><path class="c" d="M264.35,113.67H277v17.2A36.44,36.44,0,0,1,271,132.3a42.26,42.26,0,0,1-6.15.42q-7.78,0-12-4.6t-4.22-13q0-8.27,4.76-13t13.1-4.67a25.4,25.4,0,0,1,10.17,2.06l-2,4.66a19.79,19.79,0,0,0-8.34-1.92,11.21,11.21,0,0,0-8.67,3.45q-3.19,3.44-3.19,9.42,0,6.28,2.87,9.55t8.26,3.27a27.42,27.42,0,0,0,5.82-.68v-8.84h-7.11Z"/></svg>
