<svg xmlns="http://www.w3.org/2000/svg" xmlns:xlink="http://www.w3.org/1999/xlink" viewBox="0 0 233 233"><defs><style>.a{fill:url(#a);}</style><linearGradient id="a" x1="116.5" y1="8.39" x2="116.5" y2="227.6" gradientUnits="userSpaceOnUse"><stop offset="0" stop-color="#111d2e"/><stop offset="0.21" stop-color="#051839"/><stop offset="0.41" stop-color="#0a1b48"/><stop offset="0.58" stop-color="#132e62"/><stop offset="0.74" stop-color="#144b7e"/><stop offset="0.87" stop-color="#136497"/><stop offset="1" stop-color="#1387b8"/></linearGradient></defs><title>Artboard 1</title><path class="a" d="M231.72,202.62l-90.34-194a183,183,0,0,0-49.24-.17A3.55,3.55,0,0,0,91.8,9L1.28,203.38a141.58,141.58,0,0,0,29.57,22.51l8.37-18.81c10.7-24,38.71-40,70.08-40h0c39.11,0,74.07,19.88,87.55,49.78L201,226.1A140.91,140.91,0,0,0,231.72,202.62Zm-78.31-61.86H78.1c-4.43,0-7.51-3.59-6-7l37.72-83.62c2-4.54,9.92-4.54,12,0l37.59,83.62C160.91,137.18,157.83,140.76,153.41,140.76Z"/></svg>
